<svg width="15" height="15" viewBox="0 0 15 15" fill="none" xmlns="http://www.w3.org/2000/svg">
<path d="M12.3394 11.2781L9.94498 10.6794L9.80685 10.1262C11.4587 9.84813 12.3087 9.35313 12.3462 9.33124C12.4349 9.27936 12.49 9.18499 12.4975 9.08248C12.5044 8.97997 12.4587 8.87937 12.3781 8.81497C12.3669 8.80624 11.25 7.88374 11.25 4.68749C11.25 1.99186 10.6194 0.624989 9.37498 0.624989H9.19062C8.74185 0.19125 8.40499 0 7.49999 0C6.32562 0 3.74999 1.18063 3.74999 4.68749C3.74999 7.88374 2.63311 8.80624 2.62499 8.81248C2.54188 8.87497 2.49501 8.97435 2.49999 9.07812C2.50561 9.1825 2.56186 9.27625 2.65125 9.32998C2.68875 9.35248 3.53062 9.84997 5.19248 10.1275L5.05435 10.6793L2.66 11.2781C1.09374 11.67 0 13.0712 0 14.6875C0 14.86 0.140009 15 0.312509 15H14.6875C14.86 15 15 14.8587 15 14.6862C15 13.0712 13.9062 11.67 12.3394 11.2781Z" fill="#4F4F4F"/>
</svg>
