<svg width="60" height="60" viewBox="0 0 60 60" fill="none" xmlns="http://www.w3.org/2000/svg">
<path fill-rule="evenodd" clip-rule="evenodd" d="M60 30C60 13.4315 46.5685 0 30 0C13.4315 0 0 13.4315 0 30C0 46.5685 13.4315 60 30 60C30.254 60 30.5072 59.9968 30.7596 59.9906C15.3617 59.5979 3 46.9926 3 31.5C3 15.7599 15.7599 3 31.5 3C46.9926 3 59.5979 15.3617 59.9906 30.7596C59.9968 30.5072 60 30.254 60 30Z" fill="#4F4F4F"/>
<path d="M38.8517 17H25.6379V18.4682H38.8517V17Z" fill="#4F4F4F"/>
<path d="M38.8517 18.4682V17H25.6379" fill="#4F4F4F"/>
<path d="M38.8517 19.9364H25.6379V21.894H38.8517V19.9364Z" fill="#4F4F4F"/>
<path d="M38.8517 21.894V19.9364H25.6379" fill="#4F4F4F"/>
<path d="M38.8515 29.7243V22.8728H25.6377V29.7243H23.0439L31.9999 38.6803L40.9559 29.7243H38.8515Z" fill="#4F4F4F"/>
<path d="M32.0001 38.6803L40.9561 29.7243H38.8517V22.8728H25.6379" fill="#4F4F4F"/>
<path d="M31.9999 41.9592L28.0847 38.044H23.0439L31.9999 47L40.9559 38.044H35.9151L31.9999 41.9592Z" fill="#4F4F4F"/>
<path d="M32 46.9021L40.956 38.044H35.9152L32 41.9103" fill="#4F4F4F"/>
</svg>
