<svg width="60" height="60" viewBox="0 0 60 60" fill="none" xmlns="http://www.w3.org/2000/svg">
<path fill-rule="evenodd" clip-rule="evenodd" d="M29.3789 16C20.8835 16 14 22.8835 14 31.3789C14 38.1723 18.4054 43.9394 24.5179 45.9719C25.2889 46.112 25.5692 45.6415 25.5692 45.2309C25.5692 44.8655 25.5542 43.8993 25.5492 42.6177C21.2689 43.5439 20.3678 40.5552 20.3678 40.5552C19.667 38.778 18.6607 38.3024 18.6607 38.3024C17.264 37.3513 18.7659 37.3713 18.7659 37.3713C20.3078 37.4814 21.1188 38.9532 21.1188 38.9532C22.4904 41.3061 24.7182 40.6253 25.5943 40.2348C25.7344 39.2386 26.1349 38.5627 26.5705 38.1773C23.1563 37.7918 19.5668 36.4702 19.5668 30.5779C19.5668 28.8959 20.1676 27.5242 21.1488 26.4478C20.9936 26.0624 20.4629 24.4954 21.299 22.3778C21.299 22.3778 22.5906 21.9673 25.5292 23.9548C26.7557 23.6144 28.0723 23.4442 29.3789 23.4392C30.6855 23.4442 32.0021 23.6144 33.2286 23.9548C36.1673 21.9673 37.4538 22.3778 37.4538 22.3778C38.2949 24.4954 37.7692 26.0624 37.609 26.4478C38.5952 27.5242 39.186 28.8959 39.186 30.5779C39.186 36.4852 35.5916 37.7818 32.1673 38.1673C32.718 38.6378 33.2086 39.579 33.2086 41.0108C33.2086 43.0683 33.1936 44.7253 33.1936 45.2309C33.1936 45.6415 33.4689 46.122 34.2499 45.9719C40.3574 43.9344 44.7578 38.1723 44.7578 31.3789C44.7578 22.8835 37.8744 16 29.3789 16Z" fill="#4F4F4F"/>
<path fill-rule="evenodd" clip-rule="evenodd" d="M30 60C46.5685 60 60 46.5685 60 30C60 13.4315 46.5685 0 30 0C13.4315 0 0 13.4315 0 30C0 30.254 0.00315558 30.5072 0.00942968 30.7596C0.40208 15.3617 13.0074 3 28.5 3C44.2401 3 57 15.7599 57 31.5C57 46.9926 44.6383 59.5979 29.2404 59.9906C29.4928 59.9968 29.746 60 30 60Z" fill="#4F4F4F"/>
</svg>
