<svg width="15" height="14" viewBox="0 0 15 14" fill="none" xmlns="http://www.w3.org/2000/svg">
<path d="M14.7482 6.31212L12.4749 4.03879V1.41272C12.4749 0.937894 12.0901 0.553082 11.6146 0.553082C11.1402 0.553082 10.7554 0.937894 10.7554 1.41272V2.3193L9.0627 0.626569C8.22583 -0.20985 6.77078 -0.208366 5.93582 0.628083L0.251661 6.31212C-0.0838871 6.64833 -0.0838871 7.19235 0.251661 7.52805C0.587361 7.86417 1.13244 7.86417 1.46802 7.52805L7.15163 1.84386C7.33678 1.65968 7.66313 1.65968 7.84731 1.84332L13.5319 7.52805C13.7005 7.69613 13.9202 7.77973 14.1399 7.77973C14.3601 7.77973 14.5802 7.69603 14.7483 7.52805C15.0839 7.19238 15.0839 6.64836 14.7482 6.31212Z" fill="#4F4F4F"/>
<path d="M7.7986 3.47559C7.63346 3.31054 7.36607 3.31054 7.20141 3.47559L2.20162 8.47391C2.12268 8.55282 2.07793 8.66055 2.07793 8.77297V12.4186C2.07793 13.274 2.77155 13.9676 3.62698 13.9676H6.10239V10.134H8.89708V13.9676H11.3725C12.2279 13.9676 12.9215 13.274 12.9215 12.4186V8.77297C12.9215 8.66055 12.8772 8.55282 12.7979 8.47391L7.7986 3.47559Z" fill="#4F4F4F"/>
</svg>
