<svg width="60" height="60" viewBox="0 0 60 60" fill="none" xmlns="http://www.w3.org/2000/svg">
<path fill-rule="evenodd" clip-rule="evenodd" d="M30 60C46.5685 60 60 46.5685 60 30C60 13.4315 46.5685 0 30 0C13.4315 0 0 13.4315 0 30C0 30.254 0.00315558 30.5072 0.00942968 30.7596C0.40208 15.3617 13.0074 3 28.5 3C44.2401 3 57 15.7599 57 31.5C57 46.9926 44.6383 59.5979 29.2404 59.9906C29.4928 59.9968 29.746 60 30 60Z" fill="#4F4F4F"/>
<path d="M40.78 16H15.2225C13.995 16 13 16.9663 13 18.1512V43.855C13 45.0363 13.995 46 15.2225 46H40.7788C42.0075 46 43 45.0363 43 43.855V18.1512C43 16.9663 42.0075 16 40.78 16ZM22.0975 41.1112H17.5663V27.57H22.0975V41.1112H22.0975ZM19.8287 25.7225H19.7987C18.2775 25.7225 17.2937 24.675 17.2937 23.38C17.2937 22.0487 18.3075 21.0374 19.8575 21.0374C21.4087 21.0374 22.3625 22.0487 22.3912 23.38C22.3925 24.675 21.41 25.7225 19.8287 25.7225ZM38.4337 41.1112H33.9113V33.8687C33.9113 32.0487 33.2463 30.7975 31.6063 30.7975C30.3475 30.7975 29.6113 31.64 29.2875 32.4575C29.1687 32.735 29.1375 33.1412 29.1375 33.5487V41.1112H24.6037C24.6037 41.1112 24.6612 28.8375 24.6037 27.5699H29.1375V29.4899C29.7325 28.5687 30.81 27.2499 33.2162 27.2499C36.2012 27.2499 38.4337 29.1862 38.4337 33.3462V41.1112ZM29.11 29.5337C29.1137 29.52 29.1199 29.5063 29.1362 29.4913V29.5337H29.11Z" fill="#4F4F4F"/>
</svg>
