<svg width="60" height="60" viewBox="0 0 60 60" fill="none" xmlns="http://www.w3.org/2000/svg">
<path fill-rule="evenodd" clip-rule="evenodd" d="M30 60C46.5685 60 60 46.5685 60 30C60 13.4315 46.5685 0 30 0C13.4315 0 0 13.4315 0 30C0 30.254 0.00315558 30.5072 0.00942968 30.7596C0.40208 15.3617 13.0074 3 28.5 3C44.2401 3 57 15.7599 57 31.5C57 46.9926 44.6383 59.5979 29.2404 59.9906C29.4928 59.9968 29.746 60 30 60Z" fill="#4F4F4F"/>
<g clip-path="url(#clip0)">
<path d="M39.2421 21.1844H18.7225C17.5583 21.1265 16.4141 21.5019 15.5103 22.2381L16.6731 22.9897L25.5003 28.7075C25.5865 28.7376 25.6654 28.7858 25.7316 28.8488L28.9438 30.9367L41.2851 22.9961L42.4543 22.2381C41.5369 21.5273 40.4023 21.1551 39.2421 21.1844Z" fill="#4F4F4F"/>
<path d="M15.7866 23.9341L14.7008 23.2274C14.2374 24.0366 13.9979 24.9546 14.007 25.8871L14.0006 36.0955C13.9843 37.1841 14.3175 38.2492 14.9514 39.1343L15.8636 38.1899L24.2732 29.4527L15.7866 23.9341Z" fill="#4F4F4F"/>
<path d="M41.208 39.0572L32.6314 30.1658L29.355 32.2858L29.2457 32.3372H29.1943C29.141 32.344 29.0871 32.344 29.0337 32.3372C28.9804 32.344 28.9264 32.344 28.8731 32.3372H28.8217L28.6675 32.2858L25.4168 30.1786L16.7952 39.0829L15.8701 40.0401C16.7186 40.5859 17.7144 40.8572 18.7225 40.8175H39.2807C40.2848 40.8239 41.2692 40.5382 42.1139 39.9952L41.208 39.0572Z" fill="#4F4F4F"/>
<path d="M43.9962 36.0955V25.9064C44.0249 24.97 43.7913 24.0443 43.3217 23.2338L42.2295 23.9341L33.7492 29.427L42.1524 38.1706L43.0711 39.1279C43.7132 38.2506 44.0393 37.1818 43.9962 36.0955Z" fill="#4F4F4F"/>
</g>
<defs>
<clipPath id="clip0">
<rect width="30" height="30" fill="white" transform="translate(14 16)"/>
</clipPath>
</defs>
</svg>
