<svg width="15" height="10" viewBox="0 0 15 10" fill="none" xmlns="http://www.w3.org/2000/svg">
<path d="M12.6211 0.00291261H2.36129C1.7792 -0.0260375 1.20707 0.161636 0.755188 0.529716L1.3366 0.905546L5.75018 3.76442C5.7933 3.77948 5.83273 3.80357 5.86582 3.83509L7.47193 4.87906L13.6426 0.908758L14.2272 0.529716C13.7685 0.174365 13.2012 -0.0117431 12.6211 0.00291261Z" fill="#4F4F4F"/>
<path d="M0.893282 1.37776L0.350417 1.02441C0.118696 1.42899 -0.00103964 1.88802 0.00349762 2.35427L0.0002854 7.45848C-0.0078656 8.00275 0.158768 8.5353 0.475693 8.97786L0.931828 8.50566L5.13662 4.13705L0.893282 1.37776Z" fill="#4F4F4F"/>
<path d="M13.604 8.93935L9.31567 4.49365L7.67744 5.55368L7.62283 5.57938H7.59713C7.57047 5.58275 7.54349 5.58275 7.51683 5.57938C7.49017 5.58275 7.46318 5.58275 7.43652 5.57938H7.41083L7.33373 5.55368L5.70835 4.50008L1.39756 8.9522L0.934998 9.43082C1.35925 9.7037 1.85718 9.83937 2.36122 9.8195H12.6403C13.1424 9.82271 13.6346 9.67985 14.0569 9.40833L13.604 8.93935Z" fill="#4F4F4F"/>
<path d="M14.9981 7.45844V2.36387C15.0124 1.89569 14.8956 1.43285 14.6608 1.02759L14.1147 1.37772L9.8746 4.12416L14.0762 8.49599L14.5355 8.97461C14.8566 8.53598 15.0196 8.00159 14.9981 7.45844Z" fill="#4F4F4F"/>
</svg>
