<svg width="60" height="60" viewBox="0 0 60 60" fill="none" xmlns="http://www.w3.org/2000/svg">
<path fill-rule="evenodd" clip-rule="evenodd" d="M30 60C46.5685 60 60 46.5685 60 30C60 13.4315 46.5685 0 30 0C13.4315 0 0 13.4315 0 30C0 30.254 0.00315558 30.5072 0.00942968 30.7596C0.40208 15.3617 13.0074 3 28.5 3C44.2401 3 57 15.7599 57 31.5C57 46.9926 44.6383 59.5979 29.2404 59.9906C29.4928 59.9968 29.746 60 30 60Z" fill="#4F4F4F"/>
<g clip-path="url(#clip0)">
<path d="M34.5615 34.75C34.044 34.75 33.624 35.17 33.624 35.6875V44.125H18.624V35.6875C18.624 35.17 18.204 34.75 17.6865 34.75C17.169 34.75 16.749 35.17 16.749 35.6875V45.0625C16.749 45.58 17.169 46 17.6865 46H34.5615C35.079 46 35.499 45.58 35.499 45.0625V35.6875C35.499 35.17 35.079 34.75 34.5615 34.75Z" fill="#4F4F4F"/>
<path d="M30.8115 40.375H21.4365C20.919 40.375 20.499 40.795 20.499 41.3125C20.499 41.83 20.919 42.25 21.4365 42.25H30.8115C31.329 42.25 31.749 41.83 31.749 41.3125C31.749 40.795 31.329 40.375 30.8115 40.375Z" fill="#4F4F4F"/>
<path d="M30.9034 36.6307L21.5284 35.6932C21.0053 35.6425 20.5553 36.0175 20.5028 36.5313C20.4522 37.0469 20.8272 37.5063 21.3428 37.5569L30.7177 38.4944C30.7496 38.4981 30.7815 38.5 30.8134 38.5C31.2877 38.5 31.6965 38.14 31.7415 37.6563C31.7959 37.1406 31.4171 36.6813 30.9034 36.6307Z" fill="#4F4F4F"/>
<path d="M32.019 32.9144L22.644 30.1019C22.1434 29.9519 21.624 30.2351 21.4759 30.7301C21.3278 31.2269 21.609 31.7482 22.104 31.8982L31.479 34.7107C31.569 34.7369 31.659 34.7501 31.749 34.7501C32.1521 34.7501 32.5252 34.4876 32.6471 34.0807C32.7971 33.5838 32.5159 33.0626 32.019 32.9144Z" fill="#4F4F4F"/>
<path d="M33.1421 29.2432L24.7046 24.5557C24.2528 24.3007 23.6809 24.4676 23.4296 24.9195C23.1765 25.3732 23.3396 25.9432 23.7934 26.1944L32.2309 30.8819C32.3752 30.9626 32.5309 31.0001 32.6865 31.0001C33.0146 31.0001 33.3352 30.8257 33.5059 30.5182C33.7571 30.0644 33.594 29.4944 33.1421 29.2432Z" fill="#4F4F4F"/>
<path d="M35.3565 27.6907L30.669 20.1907C30.3952 19.7501 29.8159 19.6207 29.3771 19.8926C28.9384 20.1664 28.8053 20.7457 29.079 21.1845L33.7665 28.6844C33.9446 28.9694 34.2502 29.1251 34.5615 29.1251C34.7321 29.1251 34.9046 29.0801 35.0584 28.9826C35.4971 28.7088 35.6302 28.1295 35.3565 27.6907Z" fill="#4F4F4F"/>
<path d="M39.2321 26.1288L37.3571 16.7539C37.254 16.2457 36.7402 15.9157 36.2546 16.0189C35.7446 16.1201 35.4146 16.6132 35.5177 17.1214L37.3927 26.4963C37.4827 26.9426 37.8727 27.2501 38.3096 27.2501C38.3714 27.2501 38.4333 27.2445 38.4952 27.2313C39.0052 27.1301 39.3352 26.637 39.2321 26.1288Z" fill="#4F4F4F"/>
</g>
<defs>
<clipPath id="clip0">
<rect width="30" height="30" fill="white" transform="translate(13 16)"/>
</clipPath>
</defs>
</svg>
