<svg width="60" height="60" viewBox="0 0 60 60" fill="none" xmlns="http://www.w3.org/2000/svg">
<path fill-rule="evenodd" clip-rule="evenodd" d="M30 60C46.5685 60 60 46.5685 60 30C60 13.4315 46.5685 0 30 0C13.4315 0 0 13.4315 0 30C0 30.254 0.00315558 30.5072 0.00942968 30.7596C0.40208 15.3617 13.0074 3 28.5 3C44.2401 3 57 15.7599 57 31.5C57 46.9926 44.6383 59.5979 29.2404 59.9906C29.4928 59.9968 29.746 60 30 60Z" fill="#4F4F4F"/>
<g clip-path="url(#clip0)">
<path d="M45 21.6989C43.8959 22.1882 42.7111 22.52 41.4663 22.6681C42.7373 21.907 43.7103 20.6997 44.1714 19.2656C42.9791 19.9705 41.6631 20.4823 40.2609 20.7597C39.138 19.5619 37.5408 18.8157 35.7692 18.8157C32.3705 18.8157 29.6147 21.5715 29.6147 24.9683C29.6147 25.4501 29.6691 25.9206 29.7741 26.3706C24.6601 26.1137 20.1253 23.6636 17.0902 19.9405C16.5597 20.8478 16.2579 21.9051 16.2579 23.0337C16.2579 25.1689 17.3452 27.0529 18.9949 28.1552C17.9863 28.1215 17.0377 27.844 16.2073 27.3828V27.4597C16.2073 30.4404 18.3294 32.928 21.1432 33.4942C20.6277 33.6329 20.0841 33.7098 19.5217 33.7098C19.1243 33.7098 18.74 33.6704 18.3631 33.5954C19.1467 36.0419 21.4188 37.8209 24.1108 37.8696C22.0056 39.5194 19.3511 40.4998 16.4679 40.4998C15.9711 40.4998 15.4818 40.4698 15 40.4154C17.7239 42.1645 20.9577 43.1843 24.4333 43.1843C35.7543 43.1843 41.9425 33.8073 41.9425 25.6751L41.9219 24.8784C43.131 24.016 44.177 22.9324 45 21.6989Z" fill="#4F4F4F"/>
</g>
<defs>
<clipPath id="clip0">
<rect width="30" height="30" fill="white" transform="translate(15 16)"/>
</clipPath>
</defs>
</svg>
